<svg xmlns="http://www.w3.org/2000/svg" viewBox="0 0 593 382" width="593" height="382">
	<style>
		tspan { white-space:pre }
		.shp0 { fill: #04d361 } 
		.shp1 { fill: #000000 } 
	</style>
	<path id="Layer" fill-rule="evenodd" class="shp0" d="M362.45 54.68C364.38 55.76 366 57.33 367.15 59.22C368.3 61.11 368.94 63.26 369.02 65.47L369.02 134.25C368.96 136.56 368.28 138.81 367.04 140.76C365.79 142.7 364.04 144.27 361.96 145.3C341.3 156.6 320.64 168.14 299.99 179.44C296.79 181.03 293.11 181.39 289.66 180.45L289.4 180.45L288.38 179.94C287.58 179.71 286.82 179.37 286.12 178.93L275.79 173.16L242.03 154.58C236.23 151.57 230.69 148.31 224.89 145.29C222.81 144.29 221.04 142.72 219.8 140.77C218.55 138.82 217.87 136.56 217.84 134.25L217.84 65.47C217.93 63.24 218.61 61.06 219.8 59.17C220.99 57.28 222.66 55.73 224.64 54.68C245.3 43.38 265.96 31.83 286.62 20.54C288.71 19.42 291.05 18.84 293.42 18.84C295.8 18.84 298.13 19.42 300.22 20.54C320.88 31.83 341.8 43.38 362.45 54.68ZM273.01 131.74C273.84 130.98 274.48 130.04 274.88 129C275.27 127.95 275.42 126.82 275.29 125.71L274.78 125.2C274.77 124.88 274.67 124.57 274.49 124.3C274.31 124.04 274.06 123.83 273.76 123.7C272.7 123.21 271.69 122.62 270.74 121.94C269.73 121.19 268.99 120.7 267.97 119.93C267.71 119.77 267.42 119.67 267.11 119.62C266.81 119.58 266.5 119.6 266.2 119.68L265.95 119.93C264.83 120.32 263.83 120.99 263.03 121.86C262.24 122.74 261.68 123.81 261.41 124.95L255.62 146.04C255.57 146.1 255.54 146.18 255.52 146.25C255.51 146.33 255.52 146.41 255.54 146.49C255.57 146.56 255.61 146.63 255.67 146.69C255.73 146.74 255.8 146.78 255.87 146.8L256.13 146.8C256.27 146.82 256.41 146.81 256.54 146.76C256.67 146.72 256.79 146.64 256.89 146.55L273.02 131.74L273.01 131.74ZM291.4 117.18C291.41 117.04 291.4 116.9 291.36 116.77C291.31 116.64 291.24 116.52 291.14 116.42C288.87 114.91 279.3 109.14 279.3 109.14C279.3 109.14 269.72 103.36 267.46 101.86C267.46 101.6 267.2 101.86 267.2 101.86L267.2 102.11C267.2 102.85 266.95 103.36 266.95 103.87C266.95 104.12 267.2 104.12 267.2 104.38L269.97 108.64C270.13 108.85 270.24 109.1 270.28 109.36C270.33 109.63 270.31 109.9 270.23 110.15L268.46 117.43C268.21 117.68 268.46 117.93 268.72 118.19C271.05 119.98 273.59 121.5 276.28 122.71C276.42 122.72 276.56 122.71 276.69 122.67C276.82 122.62 276.94 122.55 277.04 122.45L282.58 117.43C282.78 117.24 283.02 117.09 283.28 117.01C283.55 116.92 283.82 116.89 284.1 116.92L289.14 117.43C289.39 117.43 289.39 117.18 289.65 117.18L291.4 117.18ZM323.4 71.24C322.9 70.99 322.9 70.74 324.16 71.48L324.16 71.23C325.93 68.72 330.96 61.94 330.96 61.94C331.47 61.44 331.73 60.69 331.22 60.19L330.96 59.93C330.84 59.78 330.69 59.65 330.51 59.56C330.34 59.47 330.14 59.43 329.95 59.42L319.87 57.92C319.4 57.87 318.92 57.94 318.48 58.12C318.05 58.29 317.66 58.57 317.35 58.93L312.06 66.21C311.7 66.72 311.56 67.34 311.65 67.95C311.75 68.56 312.08 69.1 312.57 69.48C312.82 69.48 312.82 69.48 312.57 69.73C312.57 69.73 312.31 69.98 312.31 69.73L309.54 69.22L305.51 68.72C305 68.61 304.47 68.65 303.98 68.83C303.49 69.01 303.06 69.32 302.74 69.73L286.87 91.32C286.62 91.57 286.36 91.83 286.11 91.57L285.85 91.57L270.48 82.29C270.01 82.02 269.46 81.95 268.94 82.1C268.42 82.24 267.98 82.58 267.71 83.05C267.44 83.56 267.37 84.14 267.51 84.7C267.65 85.25 268 85.74 268.48 86.06L268.99 86.31C269.24 86.31 269.24 86.57 269.24 86.82L268.73 89.83C268.73 90.09 268.48 90.34 268.22 90.09L267.97 90.09L265.7 88.83C264.86 88.34 263.86 88.21 262.92 88.44C261.98 88.67 261.17 89.26 260.66 90.09C260.35 90.41 260.11 90.79 259.95 91.21C259.79 91.63 259.72 92.08 259.75 92.53C259.77 92.97 259.89 93.41 260.09 93.81C260.29 94.21 260.57 94.57 260.92 94.86L261.43 95.36L272.76 102.39C274.62 103.6 276.8 104.21 279.02 104.12C281.23 104.02 283.36 103.24 285.11 101.88C285.77 101.15 286.68 100.7 287.65 100.6C288.63 100.51 289.62 100.78 290.4 101.38C290.82 101.62 291.3 101.75 291.79 101.75C292.27 101.75 292.75 101.62 293.17 101.38L295.94 99.62C296.36 99.37 296.84 99.24 297.33 99.24C297.82 99.24 298.29 99.37 298.71 99.62L307.28 104.89C307.64 104.93 308 104.84 308.3 104.64L329.46 76.02C331.22 73.76 329.97 72.51 328.95 72.25L328.7 72.25L323.66 71.49L323.4 71.24L323.4 71.24Z" />
	<path id="Layer" class="shp1" d="M314.08 28.32C321.89 22.29 326.17 21.04 332.72 21.04C334.64 21.04 336.54 21.47 338.26 22.29C344.06 25.56 346.58 35.35 344.81 49.41L353.13 53.92C355.9 33.84 352.11 20.04 342.3 14.51C339.22 12.81 335.74 11.94 332.22 12C323.4 12 316.35 14.51 305.26 23.3C308.54 25.05 311.31 26.81 314.08 28.32Z" />
	<path id="Layer" class="shp1" d="M217.85 116.16C206.26 110.64 203.49 106.12 203.49 99.84C203.49 93.32 210.03 87.04 221.88 81.52L221.88 71.49C204.24 78.77 194.41 88.81 194.41 99.6C194.41 110.65 200.21 118.43 217.85 125.71L217.85 116.16Z" />
	<path id="Layer" class="shp1" d="M241.27 45.39C239.76 31.58 242.29 25.81 248.33 22.54C249.99 21.54 251.93 21.1 253.87 21.29C260.42 21.29 267.98 24.8 275.78 30.82L284.09 26.31C273.26 17.52 262.42 12.5 253.61 12.5C250.08 12.44 246.61 13.3 243.53 15.01C233.7 20.78 229.67 30.32 232.69 50.4C235.73 48.4 238.5 46.89 241.27 45.39Z" />
	<path id="Layer" class="shp1" d="M368.75 74L368.75 83.54C380.34 89.06 383.11 93.58 383.11 99.86C383.11 106.38 376.56 112.66 364.72 118.18L364.72 128.22C382.35 120.94 392.18 110.9 392.18 100.11C392.18 89.06 386.64 81.28 368.75 74Z" />
	<path id="Layer" class="shp1" d="M272.76 171.15C264.95 177.17 260.67 178.43 254.12 178.43C252.2 178.42 250.31 178 248.58 177.17C242.53 173.9 240.26 163.86 242.03 150.06C239.25 148.55 236.23 147.05 233.46 145.29C230.69 165.12 234.48 178.93 244.04 184.45C247.12 186.15 250.59 187.02 254.12 186.96C262.94 187.21 270.24 184.7 281.33 175.91L272.76 171.15Z" />
	<path id="Layer" class="shp1" d="M345.32 154.33C346.83 168.14 344.06 173.91 338.27 177.17C336.61 178.18 334.66 178.62 332.73 178.43C326.18 178.43 318.62 174.91 310.56 168.89C307.79 170.39 305.02 171.9 302 173.41C313.08 182.44 323.67 187.46 332.73 187.46C336.26 187.53 339.73 186.66 342.81 184.95C352.64 179.18 356.92 169.64 353.65 149.56C351.12 151.06 348.09 152.57 345.32 154.33Z" />
	<g id="Layer" style="opacity: 0.502">
		<path id="Layer" fill-rule="evenodd" class="shp1" d="M172.25 381.7L172.25 360.82L179.6 360.82C181.63 360.68 183.66 361.19 185.39 362.27C186.04 362.77 186.56 363.42 186.91 364.16C187.25 364.91 187.41 365.72 187.36 366.54C187.37 367.5 187.09 368.44 186.56 369.24C186.02 370.03 185.25 370.63 184.35 370.95C185.37 371.18 186.27 371.75 186.9 372.58C187.54 373.44 187.86 374.49 187.83 375.56C187.89 376.42 187.75 377.28 187.41 378.07C187.07 378.86 186.56 379.57 185.9 380.13C184.3 381.26 182.36 381.81 180.4 381.71L172.25 381.7ZM176.58 372.61L176.58 378.24L180.28 378.24C181.14 378.3 181.98 378.04 182.66 377.52C182.95 377.27 183.17 376.96 183.32 376.62C183.47 376.27 183.54 375.9 183.52 375.52C183.57 375.12 183.52 374.72 183.39 374.34C183.26 373.96 183.04 373.62 182.75 373.33C182.46 373.05 182.11 372.84 181.73 372.71C181.35 372.59 180.94 372.55 180.54 372.61L176.58 372.61ZM176.58 369.56L179.78 369.56C181.96 369.52 183.05 368.66 183.05 366.96C183.08 366.58 183.03 366.2 182.88 365.84C182.74 365.49 182.51 365.17 182.22 364.92C181.43 364.44 180.52 364.23 179.6 364.3L176.57 364.3L176.58 369.56ZM220.26 371.73C220.3 373.59 219.93 375.43 219.17 377.13C218.5 378.61 217.41 379.87 216.03 380.73C214.62 381.58 213 382.02 211.35 382C209.72 382.02 208.11 381.59 206.71 380.75C205.32 379.89 204.22 378.66 203.54 377.19C202.76 375.52 202.37 373.7 202.4 371.86L202.4 370.81C202.36 368.94 202.74 367.09 203.52 365.39C204.19 363.9 205.29 362.65 206.67 361.79C208.07 360.94 209.69 360.5 211.33 360.53C212.97 360.5 214.58 360.94 215.98 361.79C217.37 362.65 218.46 363.9 219.14 365.39C219.91 367.08 220.29 368.94 220.25 370.8L220.26 371.73ZM215.89 370.78C216 369.04 215.59 367.3 214.71 365.79C214.34 365.24 213.84 364.8 213.25 364.5C212.66 364.2 212 364.06 211.34 364.08C210.68 364.06 210.03 364.2 209.44 364.49C208.86 364.79 208.35 365.23 207.99 365.77C207.1 367.26 206.69 368.98 206.79 370.71L206.79 371.73C206.69 373.46 207.1 375.18 207.97 376.69C208.33 377.25 208.83 377.72 209.43 378.03C210.03 378.34 210.69 378.49 211.37 378.46C212.03 378.49 212.68 378.35 213.26 378.05C213.85 377.75 214.35 377.31 214.71 376.76C215.58 375.26 215.99 373.54 215.89 371.81L215.89 370.78ZM252.59 371.73C252.63 373.59 252.25 375.43 251.49 377.13C250.83 378.61 249.74 379.86 248.36 380.72C246.96 381.57 245.34 382.02 243.69 381.99C242.05 382.01 240.44 381.58 239.04 380.74C237.66 379.89 236.56 378.65 235.88 377.19C235.1 375.52 234.71 373.69 234.74 371.86L234.74 370.81C234.7 368.94 235.08 367.09 235.85 365.39C236.53 363.9 237.63 362.65 239.01 361.79C240.41 360.94 242.03 360.5 243.66 360.53C245.31 360.5 246.92 360.94 248.32 361.79C249.7 362.66 250.79 363.91 251.46 365.39C252.23 367.09 252.61 368.94 252.57 370.8L252.59 371.73ZM248.2 370.79C248.31 369.04 247.9 367.31 247.02 365.8C246.65 365.25 246.15 364.8 245.56 364.5C244.97 364.21 244.31 364.06 243.65 364.09C242.99 364.06 242.34 364.2 241.75 364.5C241.16 364.79 240.66 365.23 240.29 365.78C239.41 367.27 239 368.99 239.1 370.72L239.1 371.73C239 373.47 239.41 375.19 240.28 376.7C240.64 377.26 241.14 377.73 241.74 378.04C242.34 378.35 243 378.5 243.68 378.47C244.34 378.5 244.99 378.36 245.57 378.06C246.16 377.76 246.66 377.32 247.02 376.77C247.89 375.27 248.3 373.54 248.2 371.81L248.2 370.79ZM282.23 364.31L275.81 364.31L275.81 381.7L271.48 381.7L271.48 364.31L265.16 364.31L265.16 360.82L282.23 360.82L282.23 364.31ZM312.71 374.75C312.68 375.75 312.45 376.75 312.02 377.66C311.59 378.57 310.98 379.38 310.22 380.05C308.54 381.4 306.43 382.09 304.28 381.99C303.09 382.05 301.9 381.83 300.8 381.37C299.7 380.9 298.72 380.19 297.94 379.29C296.3 377.17 295.48 374.54 295.63 371.87L295.63 370.6C295.59 368.77 295.95 366.96 296.69 365.29C297.34 363.84 298.4 362.61 299.75 361.77C301.14 360.94 302.73 360.51 304.35 360.54C306.47 360.44 308.55 361.13 310.19 362.48C311.73 363.89 312.65 365.84 312.75 367.92L308.42 367.92C308.43 366.83 308.02 365.79 307.29 364.98C306.46 364.31 305.4 363.99 304.34 364.07C303.71 364.03 303.08 364.15 302.52 364.42C301.95 364.69 301.46 365.1 301.1 365.61C300.28 367.07 299.9 368.73 300 370.4L300 371.98C299.88 373.69 300.23 375.4 301.02 376.92C301.38 377.45 301.87 377.87 302.43 378.14C303 378.41 303.64 378.53 304.27 378.49C305.34 378.57 306.41 378.25 307.25 377.58C307.98 376.81 308.38 375.81 308.39 374.76L312.71 374.75ZM339.35 377.4L331.78 377.4L330.34 381.71L325.76 381.71L333.56 360.83L337.56 360.83L345.41 381.71L340.82 381.71L339.35 377.4ZM332.94 373.91L338.18 373.91L335.55 366.1L332.94 373.91ZM364.97 360.82L370.35 375.96L375.7 360.82L381.37 360.82L381.37 381.7L377.04 381.7L377.04 375.99L377.47 366.14L371.82 381.7L368.86 381.7L363.21 366.15L363.64 375.99L363.64 381.7L359.31 381.7L359.31 360.82L364.97 360.82ZM401.44 374.34L401.44 381.7L397.11 381.7L397.11 360.82L405.28 360.82C406.71 360.79 408.13 361.08 409.43 361.68C410.57 362.21 411.53 363.06 412.19 364.13C412.84 365.21 413.18 366.46 413.15 367.73C413.2 368.64 413.03 369.56 412.66 370.39C412.3 371.23 411.75 371.98 411.05 372.57C409.38 373.84 407.31 374.47 405.21 374.35L401.44 374.34ZM401.44 370.86L405.29 370.86C406.23 370.92 407.16 370.64 407.9 370.06C408.21 369.76 408.45 369.41 408.6 369.01C408.76 368.62 408.82 368.19 408.8 367.77C408.82 367.32 408.75 366.87 408.59 366.44C408.44 366.01 408.2 365.62 407.89 365.29C407.56 364.97 407.17 364.71 406.74 364.55C406.31 364.38 405.85 364.3 405.39 364.31L401.43 364.31L401.44 370.86Z" />
	</g>
	<path id="Layer" fill-rule="evenodd" class="shp1" d="M149.28 312.73C145.95 316.49 141.67 319.3 136.89 320.86C131.19 322.84 125.18 323.81 119.15 323.74C112.88 323.88 106.69 322.34 101.22 319.29C96.03 316.28 91.88 311.78 89.31 306.38C86.39 300.16 84.92 293.36 85.01 286.5L85.01 281.17C84.84 274.18 86.2 267.23 88.99 260.82C91.39 255.38 95.38 250.79 100.45 247.67C105.76 244.55 111.84 242.97 118.01 243.11C127.35 243.11 134.65 245.33 139.91 249.77C145.46 254.76 148.82 261.72 149.27 269.15L133.48 269.15C133.13 265.39 131.43 261.89 128.69 259.28C125.78 257.06 122.17 255.95 118.5 256.16C116.05 256.03 113.6 256.53 111.39 257.62C109.18 258.7 107.29 260.33 105.9 262.35C103.01 266.49 101.55 272.63 101.52 280.79L101.52 285.8C101.52 294.03 103.09 300.24 106.23 304.45C107.83 306.55 109.92 308.22 112.33 309.32C114.74 310.42 117.38 310.91 120.02 310.76C126.11 310.76 130.46 309.46 133.06 306.88L133.06 293.35L118.28 293.35L118.28 281.44L149.28 281.44L149.28 312.73ZM158.96 292.95C158.86 287.61 160.01 282.31 162.31 277.48C164.41 273.1 167.77 269.44 171.97 266.97C176.41 264.43 181.47 263.14 186.6 263.25C190.14 263.12 193.68 263.68 197 264.92C200.32 266.16 203.36 268.05 205.94 270.48C211.12 275.72 214.11 282.74 214.29 290.1L214.4 294.08C214.79 301.96 212.09 309.68 206.88 315.62C204.3 318.34 201.16 320.47 197.68 321.87C194.2 323.27 190.46 323.91 186.71 323.74C182.95 323.91 179.21 323.27 175.72 321.88C172.24 320.49 169.09 318.36 166.5 315.65C161.47 310.26 158.96 302.94 158.96 293.66L158.96 292.95ZM174.59 294.08C174.3 298.53 175.4 302.96 177.73 306.77C178.73 308.2 180.08 309.35 181.65 310.12C183.22 310.89 184.96 311.25 186.71 311.17C188.43 311.24 190.14 310.88 191.69 310.12C193.24 309.36 194.58 308.23 195.58 306.83C197.71 303.93 198.77 299.31 198.77 292.95C199.04 288.52 197.92 284.11 195.58 280.34C194.58 278.9 193.24 277.73 191.67 276.95C190.1 276.16 188.35 275.79 186.6 275.86C184.86 275.79 183.14 276.16 181.58 276.94C180.03 277.72 178.7 278.88 177.73 280.31C175.33 284.49 174.24 289.29 174.6 294.09L174.59 294.08ZM265.9 302.06C265.97 300.71 265.72 299.37 265.15 298.14C264.59 296.92 263.73 295.85 262.65 295.03C259.04 292.73 255.11 290.99 250.97 289.86C246.37 288.47 241.9 286.67 237.61 284.5C228.67 279.68 224.2 273.2 224.2 265.04C224.14 260.98 225.4 257 227.79 253.7C230.43 250.19 234.02 247.49 238.13 245.91C242.93 243.99 248.07 243.04 253.24 243.12C258.42 243.03 263.55 244.07 268.27 246.16C272.44 247.99 276 250.97 278.52 254.74C280.97 258.49 282.24 262.88 282.17 267.35L265.95 267.35C266.03 265.79 265.77 264.23 265.18 262.78C264.6 261.34 263.69 260.03 262.54 258.98C259.83 256.84 256.42 255.77 252.96 255.98C249.69 255.79 246.44 256.67 243.71 258.49C242.66 259.24 241.82 260.23 241.24 261.38C240.66 262.53 240.37 263.8 240.4 265.09C240.43 266.4 240.81 267.68 241.49 268.8C242.16 269.93 243.12 270.86 244.27 271.5C247.81 273.65 251.65 275.28 255.65 276.35C264.89 279.12 271.61 282.55 275.83 286.64C277.9 288.62 279.53 291 280.62 293.63C281.71 296.27 282.23 299.1 282.16 301.95C282.29 305.04 281.65 308.12 280.3 310.91C278.95 313.7 276.93 316.11 274.43 317.94C268.31 322.09 260.99 324.12 253.6 323.74C247.91 323.81 242.26 322.68 237.04 320.42C232.46 318.53 228.51 315.38 225.66 311.34C223.01 307.39 221.64 302.72 221.73 297.97L238.02 297.97C238.02 306.63 243.21 310.96 253.6 310.96C256.78 311.15 259.94 310.33 262.63 308.62C263.68 307.89 264.53 306.9 265.11 305.76C265.68 304.61 265.95 303.34 265.9 302.06L265.9 302.06ZM310.85 250L310.85 264.33L320.86 264.33L320.86 275.75L310.85 275.75L310.85 304.86C310.7 306.5 311.14 308.15 312.1 309.5C312.75 310.04 313.51 310.44 314.33 310.69C315.15 310.93 316.01 311 316.86 310.9C318.4 310.91 319.94 310.79 321.45 310.52L321.45 322.32C318.39 323.26 315.2 323.73 311.99 323.72C301.02 323.72 295.43 318.21 295.22 307.18L295.22 275.76L286.68 275.76L286.68 264.34L295.22 264.34L295.22 250L310.85 250ZM363.49 322.65C362.69 321 362.16 319.24 361.92 317.42C360.07 319.49 357.79 321.13 355.24 322.22C352.68 323.31 349.92 323.82 347.14 323.73C341.93 323.92 336.84 322.15 332.88 318.77C331.06 317.23 329.61 315.32 328.63 313.15C327.66 310.99 327.17 308.64 327.23 306.26C327.09 303.51 327.65 300.76 328.85 298.27C330.06 295.79 331.87 293.64 334.12 292.04C338.72 288.73 345.37 287.06 354.06 287.02L361.25 287.02L361.25 283.68C361.37 281.34 360.63 279.05 359.17 277.21C358.32 276.35 357.29 275.68 356.16 275.26C355.02 274.85 353.8 274.68 352.6 274.79C350.37 274.66 348.17 275.33 346.4 276.67C345.66 277.31 345.07 278.11 344.68 279C344.29 279.9 344.11 280.87 344.16 281.85L328.52 281.85C328.52 278.46 329.63 275.17 331.66 272.46C333.94 269.44 337.01 267.1 340.54 265.69C344.61 264.01 349 263.17 353.41 263.24C359.6 262.91 365.71 264.84 370.58 268.66C372.73 270.55 374.41 272.91 375.52 275.55C376.62 278.18 377.11 281.03 376.95 283.89L376.95 309.16C376.74 313.47 377.54 317.77 379.28 321.72L379.28 322.64L363.49 322.65ZM356.94 310.28C358.77 309.37 360.28 307.94 361.27 306.16L361.27 296.13L355.43 296.13C347.61 296.13 343.44 298.83 342.93 304.22L342.88 305.13C342.86 306.03 343.03 306.93 343.38 307.75C343.74 308.58 344.27 309.32 344.94 309.93C346.5 311.25 348.51 311.93 350.56 311.82C352.78 311.84 354.97 311.31 356.94 310.28ZM413.31 311.17C415.87 311.28 418.38 310.44 420.34 308.8C421.23 308.01 421.95 307.04 422.43 305.95C422.91 304.86 423.16 303.68 423.14 302.49L437.8 302.49C437.8 306.35 436.67 310.12 434.56 313.35C432.41 316.66 429.39 319.31 425.82 321.01C422 322.85 417.81 323.78 413.57 323.73C409.89 323.91 406.21 323.3 402.79 321.92C399.37 320.55 396.29 318.45 393.77 315.78C388.94 310.48 386.53 303.16 386.53 293.82L386.53 292.8C386.13 284.99 388.69 277.31 393.72 271.3C396.22 268.6 399.28 266.48 402.7 265.09C406.11 263.7 409.79 263.08 413.47 263.26C419.93 262.95 426.25 265.19 431.07 269.49C433.3 271.63 435.04 274.21 436.2 277.06C437.37 279.91 437.91 282.98 437.81 286.06L423.15 286.06C423.2 283.34 422.2 280.7 420.35 278.7C419.43 277.75 418.32 277.01 417.09 276.52C415.86 276.04 414.54 275.81 413.22 275.87C411.62 275.77 410.02 276.09 408.58 276.78C407.13 277.48 405.89 278.52 404.97 279.83C403.11 282.47 402.18 286.75 402.18 292.68L402.18 294.3C402.18 300.3 403.1 304.61 404.94 307.24C405.88 308.55 407.15 309.6 408.61 310.29C410.08 310.98 411.69 311.29 413.31 311.18L413.31 311.17ZM468 299.25L462.37 304.87L462.37 322.65L446.74 322.65L446.74 239.87L462.37 239.87L462.37 285.73L465.4 281.85L480.38 264.34L499.15 264.34L478.01 288.64L501 322.65L483.04 322.65L468 299.25Z" />
</svg>